<?xml version="1.0" encoding="UTF-8" standalone="no"?>
<!DOCTYPE svg PUBLIC "-//W3C//DTD SVG 1.1//EN" "http://www.w3.org/Graphics/SVG/1.1/DTD/svg11.dtd">
<svg width="100%" height="100%" viewBox="0 0 1024 1024" version="1.1" xmlns="http://www.w3.org/2000/svg" xmlns:xlink="http://www.w3.org/1999/xlink" xml:space="preserve" xmlns:serif="http://www.serif.com/" style="fill-rule:evenodd;clip-rule:evenodd;stroke-linejoin:round;stroke-miterlimit:2;">
    <g transform="matrix(0.993196,0,0,0.993196,131.202732,49.080639)">
        <g transform="matrix(665.25471,0,0,665.25471,0,476.527666)">
            <path d="M0.549,-0.087L0.549,-0.359L0.304,-0.359L0.304,-0.268L0.433,-0.268L0.432,-0.126C0.427,-0.119 0.42,-0.113 0.412,-0.108C0.403,-0.103 0.393,-0.099 0.383,-0.096C0.372,-0.092 0.361,-0.09 0.349,-0.088C0.337,-0.087 0.326,-0.086 0.314,-0.086C0.295,-0.087 0.278,-0.09 0.263,-0.096C0.248,-0.102 0.234,-0.111 0.223,-0.122C0.214,-0.131 0.206,-0.141 0.199,-0.153C0.193,-0.164 0.187,-0.176 0.182,-0.19C0.176,-0.207 0.172,-0.225 0.168,-0.246C0.165,-0.266 0.164,-0.287 0.163,-0.31L0.163,-0.401C0.163,-0.421 0.165,-0.439 0.167,-0.458C0.169,-0.476 0.173,-0.493 0.178,-0.509C0.183,-0.527 0.19,-0.544 0.199,-0.559C0.208,-0.573 0.218,-0.586 0.229,-0.596C0.24,-0.605 0.251,-0.612 0.264,-0.617C0.276,-0.622 0.29,-0.624 0.305,-0.624C0.326,-0.624 0.344,-0.621 0.359,-0.615C0.374,-0.609 0.387,-0.601 0.397,-0.59C0.407,-0.579 0.415,-0.567 0.421,-0.552C0.426,-0.536 0.431,-0.52 0.434,-0.501L0.549,-0.501C0.545,-0.535 0.538,-0.565 0.526,-0.592C0.514,-0.62 0.497,-0.643 0.477,-0.662C0.456,-0.681 0.431,-0.695 0.402,-0.705C0.373,-0.716 0.34,-0.721 0.303,-0.721C0.275,-0.721 0.25,-0.717 0.226,-0.709C0.202,-0.701 0.181,-0.69 0.161,-0.676C0.143,-0.662 0.127,-0.646 0.113,-0.627C0.099,-0.609 0.087,-0.588 0.077,-0.566C0.067,-0.542 0.059,-0.516 0.053,-0.488C0.048,-0.46 0.045,-0.431 0.045,-0.4L0.045,-0.31C0.045,-0.278 0.048,-0.248 0.054,-0.219C0.06,-0.191 0.068,-0.164 0.08,-0.14C0.09,-0.118 0.103,-0.097 0.118,-0.079C0.133,-0.06 0.15,-0.044 0.169,-0.031C0.189,-0.018 0.21,-0.008 0.234,-0.001C0.258,0.006 0.283,0.01 0.31,0.01C0.34,0.01 0.368,0.007 0.394,0.001C0.42,-0.005 0.444,-0.014 0.466,-0.025C0.484,-0.033 0.5,-0.043 0.514,-0.053C0.528,-0.064 0.54,-0.076 0.549,-0.087Z" style="fill:#3f48cc;fill-opacity:0.75;fill-rule:nonzero;"/>
        </g>
        <g transform="matrix(665.25471,0,0,665.25471,399.217793,476.527666)">
            <path d="M0.067,-0L0.247,-0C0.28,-0 0.31,-0.004 0.339,-0.012C0.367,-0.02 0.393,-0.031 0.416,-0.046C0.437,-0.059 0.456,-0.075 0.473,-0.094C0.491,-0.113 0.505,-0.134 0.517,-0.157C0.53,-0.181 0.539,-0.207 0.546,-0.236C0.552,-0.264 0.556,-0.295 0.556,-0.327L0.556,-0.383C0.556,-0.417 0.552,-0.448 0.545,-0.478C0.538,-0.507 0.528,-0.534 0.515,-0.559C0.502,-0.583 0.486,-0.604 0.468,-0.624C0.449,-0.643 0.427,-0.659 0.403,-0.671C0.381,-0.684 0.356,-0.694 0.33,-0.7C0.303,-0.707 0.274,-0.711 0.243,-0.711L0.067,-0.711L0.067,-0ZM0.186,-0.615L0.243,-0.615C0.262,-0.615 0.28,-0.613 0.296,-0.609C0.312,-0.605 0.327,-0.599 0.34,-0.591C0.358,-0.581 0.373,-0.568 0.386,-0.552C0.399,-0.536 0.409,-0.518 0.417,-0.498C0.424,-0.482 0.428,-0.464 0.432,-0.445C0.435,-0.425 0.436,-0.405 0.437,-0.384L0.437,-0.327C0.436,-0.305 0.435,-0.285 0.432,-0.266C0.428,-0.246 0.424,-0.229 0.418,-0.212C0.41,-0.193 0.401,-0.176 0.39,-0.162C0.379,-0.147 0.366,-0.134 0.351,-0.125C0.337,-0.115 0.322,-0.108 0.304,-0.103C0.287,-0.098 0.268,-0.095 0.247,-0.095L0.186,-0.095L0.186,-0.615Z" style="fill:#3f48cc;fill-opacity:0.75;fill-rule:nonzero;"/>
        </g>
    </g>
    <g transform="matrix(0.993196,0,0,0.993196,114.369411,32.247318)">
        <g transform="matrix(665.25471,0,0,665.25471,0,476.527666)">
            <path d="M0.549,-0.087L0.549,-0.359L0.304,-0.359L0.304,-0.268L0.433,-0.268L0.432,-0.126C0.427,-0.119 0.42,-0.113 0.412,-0.108C0.403,-0.103 0.393,-0.099 0.383,-0.096C0.372,-0.092 0.361,-0.09 0.349,-0.088C0.337,-0.087 0.326,-0.086 0.314,-0.086C0.295,-0.087 0.278,-0.09 0.263,-0.096C0.248,-0.102 0.234,-0.111 0.223,-0.122C0.214,-0.131 0.206,-0.141 0.199,-0.153C0.193,-0.164 0.187,-0.176 0.182,-0.19C0.176,-0.207 0.172,-0.225 0.168,-0.246C0.165,-0.266 0.164,-0.287 0.163,-0.31L0.163,-0.401C0.163,-0.421 0.165,-0.439 0.167,-0.458C0.169,-0.476 0.173,-0.493 0.178,-0.509C0.183,-0.527 0.19,-0.544 0.199,-0.559C0.208,-0.573 0.218,-0.586 0.229,-0.596C0.24,-0.605 0.251,-0.612 0.264,-0.617C0.276,-0.622 0.29,-0.624 0.305,-0.624C0.326,-0.624 0.344,-0.621 0.359,-0.615C0.374,-0.609 0.387,-0.601 0.397,-0.59C0.407,-0.579 0.415,-0.567 0.421,-0.552C0.426,-0.536 0.431,-0.52 0.434,-0.501L0.549,-0.501C0.545,-0.535 0.538,-0.565 0.526,-0.592C0.514,-0.62 0.497,-0.643 0.477,-0.662C0.456,-0.681 0.431,-0.695 0.402,-0.705C0.373,-0.716 0.34,-0.721 0.303,-0.721C0.275,-0.721 0.25,-0.717 0.226,-0.709C0.202,-0.701 0.181,-0.69 0.161,-0.676C0.143,-0.662 0.127,-0.646 0.113,-0.627C0.099,-0.609 0.087,-0.588 0.077,-0.566C0.067,-0.542 0.059,-0.516 0.053,-0.488C0.048,-0.46 0.045,-0.431 0.045,-0.4L0.045,-0.31C0.045,-0.278 0.048,-0.248 0.054,-0.219C0.06,-0.191 0.068,-0.164 0.08,-0.14C0.09,-0.118 0.103,-0.097 0.118,-0.079C0.133,-0.06 0.15,-0.044 0.169,-0.031C0.189,-0.018 0.21,-0.008 0.234,-0.001C0.258,0.006 0.283,0.01 0.31,0.01C0.34,0.01 0.368,0.007 0.394,0.001C0.42,-0.005 0.444,-0.014 0.466,-0.025C0.484,-0.033 0.5,-0.043 0.514,-0.053C0.528,-0.064 0.54,-0.076 0.549,-0.087Z" style="fill:#3f48cc;fill-rule:nonzero;"/>
        </g>
        <g transform="matrix(665.25471,0,0,665.25471,399.217793,476.527666)">
            <path d="M0.067,-0L0.247,-0C0.28,-0 0.31,-0.004 0.339,-0.012C0.367,-0.02 0.393,-0.031 0.416,-0.046C0.437,-0.059 0.456,-0.075 0.473,-0.094C0.491,-0.113 0.505,-0.134 0.517,-0.157C0.53,-0.181 0.539,-0.207 0.546,-0.236C0.552,-0.264 0.556,-0.295 0.556,-0.327L0.556,-0.383C0.556,-0.417 0.552,-0.448 0.545,-0.478C0.538,-0.507 0.528,-0.534 0.515,-0.559C0.502,-0.583 0.486,-0.604 0.468,-0.624C0.449,-0.643 0.427,-0.659 0.403,-0.671C0.381,-0.684 0.356,-0.694 0.33,-0.7C0.303,-0.707 0.274,-0.711 0.243,-0.711L0.067,-0.711L0.067,-0ZM0.186,-0.615L0.243,-0.615C0.262,-0.615 0.28,-0.613 0.296,-0.609C0.312,-0.605 0.327,-0.599 0.34,-0.591C0.358,-0.581 0.373,-0.568 0.386,-0.552C0.399,-0.536 0.409,-0.518 0.417,-0.498C0.424,-0.482 0.428,-0.464 0.432,-0.445C0.435,-0.425 0.436,-0.405 0.437,-0.384L0.437,-0.327C0.436,-0.305 0.435,-0.285 0.432,-0.266C0.428,-0.246 0.424,-0.229 0.418,-0.212C0.41,-0.193 0.401,-0.176 0.39,-0.162C0.379,-0.147 0.366,-0.134 0.351,-0.125C0.337,-0.115 0.322,-0.108 0.304,-0.103C0.287,-0.098 0.268,-0.095 0.247,-0.095L0.186,-0.095L0.186,-0.615Z" style="fill:#3f48cc;fill-rule:nonzero;"/>
        </g>
    </g>
    <g transform="matrix(1,0,0,1,163.242867,-16.592028)">
        <g transform="matrix(600,0,0,600,0,1024)">
            <path d="M0.22,-0L0.311,-0L0.311,-0.458L0.514,-0.458L0.514,-0.528L0.311,-0.528L0.311,-0.565C0.311,-0.588 0.313,-0.607 0.319,-0.624C0.325,-0.64 0.333,-0.654 0.344,-0.664C0.355,-0.674 0.368,-0.682 0.384,-0.687C0.399,-0.692 0.417,-0.694 0.438,-0.694C0.458,-0.694 0.477,-0.693 0.495,-0.689C0.513,-0.686 0.528,-0.682 0.542,-0.677L0.552,-0.752C0.544,-0.754 0.535,-0.756 0.527,-0.758C0.519,-0.76 0.511,-0.762 0.503,-0.763C0.491,-0.765 0.478,-0.767 0.465,-0.769C0.453,-0.77 0.44,-0.771 0.427,-0.771C0.396,-0.771 0.367,-0.767 0.342,-0.758C0.316,-0.749 0.295,-0.736 0.277,-0.719C0.259,-0.701 0.245,-0.68 0.235,-0.655C0.225,-0.629 0.22,-0.599 0.22,-0.565L0.22,-0.528L0.074,-0.528L0.074,-0.458L0.22,-0.458L0.22,-0Z" style="fill:#00a2eb;fill-opacity:0.75;fill-rule:nonzero;"/>
        </g>
        <g transform="matrix(600,0,0,600,360.058594,1024)">
            <path d="M0.099,-0.75L0.099,-0.671L0.279,-0.671L0.279,-0.078L0.099,-0.078L0.099,-0L0.542,-0L0.542,-0.078L0.369,-0.078L0.369,-0.75L0.099,-0.75Z" style="fill:#00a2eb;fill-opacity:0.75;fill-rule:nonzero;"/>
        </g>
    </g>
    <g transform="matrix(1,0,0,1,147.253906,-32.580989)">
        <g transform="matrix(600,0,0,600,0,1024)">
            <path d="M0.22,-0L0.311,-0L0.311,-0.458L0.514,-0.458L0.514,-0.528L0.311,-0.528L0.311,-0.565C0.311,-0.588 0.313,-0.607 0.319,-0.624C0.325,-0.64 0.333,-0.654 0.344,-0.664C0.355,-0.674 0.368,-0.682 0.384,-0.687C0.399,-0.692 0.417,-0.694 0.438,-0.694C0.458,-0.694 0.477,-0.693 0.495,-0.689C0.513,-0.686 0.528,-0.682 0.542,-0.677L0.552,-0.752C0.544,-0.754 0.535,-0.756 0.527,-0.758C0.519,-0.76 0.511,-0.762 0.503,-0.763C0.491,-0.765 0.478,-0.767 0.465,-0.769C0.453,-0.77 0.44,-0.771 0.427,-0.771C0.396,-0.771 0.367,-0.767 0.342,-0.758C0.316,-0.749 0.295,-0.736 0.277,-0.719C0.259,-0.701 0.245,-0.68 0.235,-0.655C0.225,-0.629 0.22,-0.599 0.22,-0.565L0.22,-0.528L0.074,-0.528L0.074,-0.458L0.22,-0.458L0.22,-0Z" style="fill:#00a2eb;fill-rule:nonzero;"/>
        </g>
        <g transform="matrix(600,0,0,600,360.058594,1024)">
            <path d="M0.099,-0.75L0.099,-0.671L0.279,-0.671L0.279,-0.078L0.099,-0.078L0.099,-0L0.542,-0L0.542,-0.078L0.369,-0.078L0.369,-0.75L0.099,-0.75Z" style="fill:#00a2eb;fill-rule:nonzero;"/>
        </g>
    </g>
</svg>
